# xmcd CD database file
#
# Track frame offsets:
#	150
#	17990
#	32395
#	48167
#	61992
#	78240
#	94715
#	108437
#	120252
#	136242
#	149360
#	161972
#	174650
#
# Disc length: 2523 seconds
#
# Revision: 0
# Processed by: cddbd v1.4PL0 Copyright (c) Steve Scherf et al.
# Submitted via: Feurio! 1.66 - http://www.feurio.com
#
DISCID=a309d90d
DTITLE=4 Spatzen - Ozeanische Gefühle
DYEAR=1900
DGENRE=
TTITLE0=Die Sonne Von Rhodos
TTITLE1=Kleine Zeichen
TTITLE2=Die Seniores Wissen Warum
TTITLE3=Wenn Du Auch Tränen Weinst
TTITLE4=Guggi Samba
TTITLE5=Ozeanische Gefühle
TTITLE6=Die Liebe Kommt, Die Liebe Geht
TTITLE7=Blume Von Barbados
TTITLE8=Tausend Träume
TTITLE9=Ich War Noch Niemals So Verliebt
TTITLE10=Madl Bleib Bei Mir
TTITLE11=Deine Stadt
TTITLE12=Adios Amigos
EXTD=
EXTT0=
EXTT1=
EXTT2=
EXTT3=
EXTT4=
EXTT5=
EXTT6=
EXTT7=
EXTT8=
EXTT9=
EXTT10=
EXTT11=
EXTT12=
PLAYORDER=
